<?xml version="1.0" encoding="utf-8"?>
<!-- Generator: Adobe Illustrator 22.1.0, SVG Export Plug-In . SVG Version: 6.00 Build 0)  -->
<svg version="1.1" id="Layer_1" xmlns="http://www.w3.org/2000/svg" xmlns:xlink="http://www.w3.org/1999/xlink" x="0px" y="0px"
	 viewBox="0 0 84 63" style="enable-background:new 0 0 84 63;" xml:space="preserve">
<title>Pets</title>
<g id="Layer_2_1_">
	<g id="Layer_1-2">
		<g id="category_grid_icon_C_2">
			<rect style="fill:#FFFFFF;fill-opacity:0;" width="84" height="63"/>
			<path style="fill:#E0F4FB;" d="M72.6,39.2c0,5.1-1.3,10.2-3.8,14.7H15.1c-2.3-4.5-3.6-9.6-3.6-14.7c0-3.5,0.6-7,1.8-10.3
				c0.3-0.7,6.2-4,6.5-4.7s-5,2.6-4.6,0.5c5.3-9.9,15.7-16,26.9-16c3.4,0.1,6.8,0.6,10.1,1.7c-12.8,4-13,7-13,7s14.6-7.5,19.3-5.4
				c1.9,1.1-13.9,6.4-12.9,8.8c0.3,0.8,11.3-6.5,18-4c1.4,1.3,2.6,2.8,3.6,4.5C70.4,26.6,72.3,32.8,72.6,39.2z"/>
			<line style="fill:none;stroke:#4D4D4D;stroke-width:0.5;stroke-miterlimit:10;" x1="6.7" y1="53.8" x2="78.6" y2="53.8"/>
			<path style="fill:#FDEDB1;" d="M57.2,30.9c0-0.1,0-0.2,0-0.4c0-0.2,0-0.4,0-0.6l-0.4-8.6c-0.2-1-1.2-1.6-2.2-1.4l-7.9,3.4
				c-0.3,0.1-0.5,0.2-0.7,0.3h-0.5c-2.3-0.7-4.8-0.7-7.1,0h-0.2c-0.2-0.2-0.4-0.3-0.7-0.3L29.3,20c-1-0.2-2,0.4-2.2,1.4c0,0,0,0,0,0
				l-0.3,8.1c-0.1,0.5-0.1,1-0.1,1.5l-1.3,15.1c0,4,3.3,7.2,7.3,7.2l18.7-0.1c4,0,7.2-3.3,7.2-7.3L57.2,30.9z"/>
			<path style="fill:#FBD33B;" d="M52.2,51.7l-18.7,0.1c-4,0-7.2-3.2-7.3-7.2l1.3-15.1c0-0.5,0-1,0.1-1.5l0.3-7.8
				c-0.4,0.3-0.7,0.7-0.8,1.1l-0.3,8.1c-0.1,0.5-0.1,1-0.1,1.5l-1.3,15.1c0,4,3.3,7.2,7.3,7.2l18.7-0.1c3,0,5.6-1.8,6.7-4.6
				C56.7,50.6,54.6,51.7,52.2,51.7z"/>
			<path style="fill:#FEF6D8;" d="M27.6,23.1l8.1,3.4c0.3,0.1,0.5,0.2,0.7,0.3h0.2c2.3-0.7,4.8-0.7,7.1,0h0.5
				c0.2-0.2,0.4-0.3,0.7-0.3l7.9-3.4c1-0.2,2,0.4,2.2,1.4l0.4,8.5c0,0.2,0,0.4,0,0.7c0,0.1,0,0.2,0,0.4l1.4,15.1
				c0,0.6,0,1.2-0.2,1.8c1.3-1.3,2-3.1,2-5l-1.4-14.4l-0.1-0.7c0-0.1,0-0.2,0-0.4c0-0.2,0-0.4,0-0.6l-0.4-8.6
				c-0.2-1-1.2-1.6-2.2-1.4l-7.9,3.4c-0.3,0.1-0.5,0.2-0.7,0.3h-0.5c-2.3-0.7-4.8-0.7-7.1,0h-0.2c-0.2-0.2-0.4-0.3-0.7-0.3L29.3,20
				c-1-0.2-2,0.4-2.2,1.4c0,0,0,0,0,0L27,23.1C27.2,23.1,27.4,23.1,27.6,23.1z"/>
			<path style="fill:#4D4D4D;" d="M28.6,41c0-0.3,0.2-0.5,0.5-0.5c0,0,0,0,0,0h4.8c0.3-0.1,0.5,0.1,0.6,0.4s-0.1,0.5-0.4,0.6
				c-0.1,0-0.1,0-0.2,0h-4.8C28.8,41.5,28.6,41.3,28.6,41z"/>
			<path style="fill:#4D4D4D;" d="M34.3,43.6l-4.6,1.3c-0.3,0.1-0.6-0.1-0.6-0.4c-0.1-0.3,0.1-0.6,0.4-0.6l4.6-1.3
				c0.3-0.1,0.6,0.1,0.6,0.4S34.6,43.5,34.3,43.6L34.3,43.6z"/>
			<path style="fill:#4D4D4D;" d="M55.4,44.5c-0.1,0.3-0.4,0.4-0.6,0.3l-4.6-1.3c-0.3-0.1-0.4-0.4-0.4-0.6s0.4-0.4,0.6-0.4l4.6,1.3
				C55.4,43.9,55.5,44.2,55.4,44.5C55.4,44.5,55.4,44.5,55.4,44.5z"/>
			<path style="fill:#4D4D4D;" d="M55.4,41.4h-4.8c-0.3,0.1-0.5-0.1-0.6-0.4s0.1-0.5,0.4-0.6c0.1,0,0.1,0,0.2,0h4.8
				c0.3-0.1,0.5,0.1,0.6,0.4s-0.1,0.5-0.4,0.6C55.5,41.4,55.5,41.4,55.4,41.4z"/>
			<circle style="fill:none;" cx="37.5" cy="35.6" r="2"/>
			<path style="fill:none;" d="M40.4,38.7c-0.2,0.2-0.2,0.6,0,0.8c0,0,0,0,0,0l1.1,1.1c0.2,0.2,0.6,0.2,0.8,0l1.1-1.1
				c0.2-0.2,0.2-0.6,0-0.8c0,0,0,0,0,0L40.4,38.7z"/>
			<circle style="fill:none;" cx="46.4" cy="35.6" r="2"/>
			<path style="fill:#DFC7A2;" d="M29.9,52.8c0.9,0.4,1.8,0.5,2.7,0.5l18.7-0.1c0.9,0,1.8-0.2,2.6-0.5c-3.2-6.6-11.2-9.4-17.9-6.1
				C33.5,47.9,31.3,50.1,29.9,52.8L29.9,52.8z"/>
			<path style="fill:#FDD089;" d="M53.1,51.7l-18.7,0.1c-0.9,0-1.9-0.2-2.7-0.5c0.6-1.2,1.4-2.4,2.4-3.3c-1.7,1.3-3.1,3-4,4.9
				c0.9,0.4,1.8,0.5,2.7,0.5l18.7-0.1c0.9,0,1.8-0.2,2.6-0.5c-0.2-0.4-0.4-0.7-0.6-1.1L53.1,51.7z"/>
			<path style="fill:none;stroke:#4D4D4D;stroke-linecap:round;stroke-linejoin:round;" d="M26,48.9c1.1,2.7,3.8,4.4,6.7,4.4
				l18.7-0.1c4,0,7.2-3.3,7.2-7.3l-1.2-13.4"/>
			<path style="fill:none;" d="M25.4,46.1c0,1,0.2,1.9,0.6,2.8"/>
			<path style="fill:none;stroke:#4D4D4D;stroke-linecap:round;stroke-linejoin:round;" d="M57.2,29.9l-0.4-8.6
				c-0.2-1-1.2-1.6-2.2-1.4l-7.9,3.4c-0.3,0.1-0.5,0.2-0.7,0.3h-0.5c-2.3-0.7-4.8-0.7-7.1,0h-0.2c-0.2-0.2-0.4-0.3-0.7-0.3L29.3,20
				c-1-0.2-2,0.4-2.2,1.4c0,0,0,0,0,0l-0.3,8.1c-0.1,0.5-0.1,1-0.1,1.5l-1.3,15.1"/>
			<path style="fill:none;" d="M33.9,41.5c0.3,0.1,0.5-0.1,0.6-0.4s-0.1-0.5-0.4-0.6c-0.1,0-0.1,0-0.2,0h-4.8
				c-0.3-0.1-0.5,0.1-0.6,0.4s0.1,0.5,0.4,0.6c0.1,0,0.1,0,0.2,0H33.9z"/>
			<path style="fill:none;" d="M34.1,42.6l-4.6,1.3c-0.3,0.1-0.4,0.4-0.4,0.6c0.1,0.3,0.4,0.4,0.6,0.4l4.6-1.3
				c0.3-0.1,0.4-0.4,0.4-0.6S34.3,42.5,34.1,42.6L34.1,42.6z"/>
			<path style="fill:none;" d="M55.1,43.8l-4.6-1.3c-0.3-0.1-0.6,0.1-0.6,0.4s0.1,0.6,0.4,0.6l4.6,1.3c0.3,0.1,0.6-0.1,0.6-0.4
				S55.4,43.9,55.1,43.8L55.1,43.8z"/>
			<path style="fill:none;" d="M55.4,40.4h-4.8c-0.3-0.1-0.5,0.1-0.6,0.4s0.1,0.5,0.4,0.6c0.1,0,0.1,0,0.2,0h4.8
				c0.3,0.1,0.5-0.1,0.6-0.4s-0.1-0.5-0.4-0.6C55.5,40.4,55.5,40.4,55.4,40.4z"/>
			<path style="fill:#4D4D4D;" d="M37.5,37.6c-1.1,0-2-0.9-2-2s0.9-2,2-2s2,0.9,2,2S38.6,37.6,37.5,37.6z M43.5,39.5l-1.1,1.1
				c-0.2,0.2-0.6,0.2-0.8,0l-1.1-1.1c-0.2-0.2-0.2-0.6,0-0.8c0,0,0,0,0,0h3.1C43.7,38.9,43.7,39.3,43.5,39.5L43.5,39.5z M46.4,37.6
				c-1.1,0-2-0.9-2-2s0.9-2,2-2s2,0.9,2,2C48.4,36.7,47.5,37.6,46.4,37.6C46.4,37.6,46.4,37.6,46.4,37.6L46.4,37.6z"/>
		</g>
	</g>
</g>
</svg>
