<svg width="108" height="80" viewBox="0 0 108 80" fill="none" xmlns="http://www.w3.org/2000/svg">
<path d="M91.5478 50.0317C91.5478 56.5079 89.897 62.9841 86.7225 68.6983H18.532C15.6113 62.9841 13.9604 56.5079 13.9604 50.0317C13.9604 45.5872 14.7224 41.1428 16.2462 36.9523C16.6271 36.0634 24.1193 31.8729 24.5001 30.9841C24.8812 30.0952 18.1509 34.2856 18.6589 31.619C25.3891 19.0475 38.5955 11.3015 52.8177 11.3015C57.1351 11.4285 61.4526 12.0634 65.6431 13.4602C49.3891 18.5396 49.1351 22.3491 49.1351 22.3491C49.1351 22.3491 67.8018 12.6983 73.7701 15.492C76.1828 16.8888 56.1193 23.619 57.3891 26.6666C57.7701 27.6825 71.7383 18.4126 80.2463 21.5872C82.024 23.238 83.5478 25.1428 84.8176 27.3015C88.8811 34.1587 91.1669 42.0317 91.5478 50.0317Z" fill="#E0F4FB"/>
<path d="M7.86523 68.6982H99.1668" stroke="#4D4D4D" stroke-width="0.40606" stroke-miterlimit="10"/>
<path d="M65.5 29H38.5V69H65.5V29Z" fill="white"/>
<path d="M38 69V29" stroke="#4D4D4D" stroke-width="0.81212"/>
<path d="M66 69V29" stroke="#4D4D4D" stroke-width="0.81212"/>
<path d="M69 21.5H35V28.5H69V21.5Z" fill="#75ACE4" stroke="#4D4D4D" stroke-width="0.81212"/>
<path d="M68.5 22H35.5V24H68.5V22Z" fill="#99D9F4"/>
<path d="M49.4468 33.2554H42.2979V40.4043H49.4468V33.2554Z" fill="#FCEEB1"/>
<path d="M43.3191 33.2554H42.2979V40.4043H43.3191V33.2554Z" fill="#FBAF17"/>
<path d="M61.7022 33.2554H54.5532V40.4043H61.7022V33.2554Z" fill="#FCEEB1"/>
<path d="M55.5745 33.2554H54.5532V40.4043H55.5745V33.2554Z" fill="#FBAF17"/>
<path d="M49.4468 45.5107H42.2979V51.6383H49.4468V45.5107Z" fill="#FCEEB1"/>
<path d="M43.3191 45.5107H42.2979V51.6383H43.3191V45.5107Z" fill="#FBAF17"/>
<path d="M61.7022 45.5107H54.5532V51.6383H61.7022V45.5107Z" fill="#FCEEB1"/>
<path d="M55.5745 45.5107H54.5532V51.6383H55.5745V45.5107Z" fill="#FBAF17"/>
<path d="M49.4468 56.7446H42.2979V62.8723H49.4468V56.7446Z" fill="#FCEEB1"/>
<path d="M43.3191 56.7446H42.2979V62.8723H43.3191V56.7446Z" fill="#FBAF17"/>
<path d="M61.7022 56.7446H54.5532V62.8723H61.7022V56.7446Z" fill="#FCEEB1"/>
<path d="M55.5745 56.7446H54.5532V62.8723H55.5745V56.7446Z" fill="#FBAF17"/>
<path d="M48.3667 63H42.5V56H50.5V61.25" stroke="#4D4D4D" stroke-width="0.568484"/>
<path d="M48.3667 40H42.5V32H50.5V38" stroke="#4D4D4D" stroke-width="0.568484"/>
<path d="M48.3667 52H42.5V44H50.5V50" stroke="#4D4D4D" stroke-width="0.568484"/>
<path d="M60.3667 63H54.5V56H62.5V61.25" stroke="#4D4D4D" stroke-width="0.568484"/>
<path d="M60.3667 40H54.5V32H62.5V38" stroke="#4D4D4D" stroke-width="0.568484"/>
<path d="M60.3667 52H54.5V44H62.5V50" stroke="#4D4D4D" stroke-width="0.568484"/>
<path d="M66.5 68.5H37.5" stroke="#4D4D4D" stroke-width="0.81212"/>
</svg>
