<svg width="107" height="81" viewBox="0 0 107 81" fill="none" xmlns="http://www.w3.org/2000/svg">
<g clip-path="url(#clip0_1592_56949)">
<path d="M91.1411 50.0353C91.1595 56.5887 89.5161 63.0399 86.3643 68.7858H17.8334C14.8687 62.9984 13.2901 56.6011 13.2222 50.099C13.2336 45.6111 14.0223 41.1592 15.5532 36.9405C15.8844 36.0106 23.4381 31.8453 23.833 30.9281C24.2279 30.011 17.464 34.2783 17.9735 31.5396C21.3095 25.3614 26.2544 20.2006 32.2844 16.6037C38.3144 13.0068 45.2049 11.1077 52.2262 11.1077C56.605 11.1724 60.948 11.907 65.1044 13.2859C48.8251 18.3811 48.5449 22.2025 48.5449 22.2025C48.5449 22.2025 67.2062 12.5725 73.1931 15.2858C75.5879 16.6615 55.5254 23.4127 56.7992 26.4825C57.2196 27.5143 71.2315 18.2537 79.7278 21.3873C81.5424 23.0489 83.093 24.9776 84.3262 27.1067C88.4614 34.0674 90.8031 41.946 91.1411 50.0353Z" fill="#E0F4FB"/>
<path d="M7.27344 68.7219H98.8349" stroke="#4D4D4D" stroke-width="0.636905" stroke-miterlimit="10"/>
<path d="M55.4875 27.6416L76.085 44.1247L71.0789 49.1053H69.9325C69.7418 48.3156 69.2936 47.612 68.6587 47.1054L54.392 35.6411C53.7575 35.139 52.972 34.8658 52.1628 34.8658C51.3536 34.8658 50.5682 35.139 49.9337 35.6411L35.667 47.1309C35.032 47.6375 34.5838 48.3411 34.3932 49.1308L33.4123 48.6722L28.5464 43.8444L48.8891 27.6416C49.8279 26.8976 50.9905 26.4928 52.1883 26.4928C53.3861 26.4928 54.5487 26.8976 55.4875 27.6416Z" fill="#FFD4A5"/>
<path d="M55.4873 27.6416C54.5485 26.8976 53.3859 26.4928 52.1881 26.4928C50.9903 26.4928 49.8277 26.8976 48.889 27.6416L28.5972 43.8699L29.871 45.1437L47.8572 30.6605C48.7959 29.9166 49.9585 29.5117 51.1563 29.5117C52.3541 29.5117 53.5168 29.9166 54.4555 30.6605L76.1103 44.1629L55.4873 27.6416Z" fill="#EE7883"/>
<path d="M34.5 65V50.5V48L51 35H53.5L70 49V64.5C70 67.3 67.6667 68 66.5 68H38.5C35.3 68 34.5 66 34.5 65Z" fill="#FCEEB1"/>
<path d="M69.9327 49.169C69.742 48.3793 69.2938 47.6757 68.6588 47.1691L54.3922 35.7048C53.7577 35.2026 52.9722 34.9294 52.163 34.9294C51.3538 34.9294 50.5684 35.2026 49.9338 35.7048L35.6672 47.1309C35.0322 47.6375 34.584 48.3411 34.3934 49.1307C34.3363 49.3902 34.3064 49.6549 34.3042 49.9205V50.8631L45.6029 41.9465C46.2374 41.4443 47.0229 41.1711 47.8321 41.1711C48.6412 41.1711 49.4267 41.4443 50.0612 41.9465L67.0029 51.0415C67.6379 51.5481 68.0861 52.2517 68.2767 53.0413C68.3338 53.3008 68.3637 53.5655 68.3659 53.8311V67.2061C68.8678 66.8983 69.2854 66.4706 69.5811 65.9614C69.8768 65.4522 70.0414 64.8776 70.06 64.2891V49.946C70.0444 49.6833 70.0018 49.4229 69.9327 49.169Z" fill="#DFC7A2"/>
<path d="M34.3928 49.9461C34.3664 49.6878 34.3664 49.4274 34.3928 49.1691C34.5756 48.3656 35.0245 47.6474 35.6667 47.131L49.9333 35.6667C50.5678 35.1646 51.3533 34.8914 52.1625 34.8914C52.9717 34.8914 53.7571 35.1646 54.3917 35.6667L68.6583 47.131C69.2933 47.6376 69.7415 48.3412 69.9321 49.1309C69.9892 49.3903 70.0191 49.655 70.0213 49.9206V64.2892C70.0213 65.2352 69.6455 66.1423 68.9766 66.8112C68.3078 67.4801 67.4006 67.8559 66.4546 67.8559H57.538" stroke="#4D4D4D" stroke-width="1.27381" stroke-linecap="round" stroke-linejoin="round"/>
<path d="M57.5 67.8559H37.9212C36.9752 67.8559 36.068 67.4801 35.3991 66.8112C34.7303 66.1424 34.3545 65.2352 34.3545 64.2892V55.3726" stroke="#4D4D4D" stroke-width="1.27381" stroke-linecap="round" stroke-linejoin="round"/>
<path d="M27.7822 44.5832L28.5975 43.9209L48.8893 27.6416C49.828 26.8976 50.9906 26.4928 52.1884 26.4928C53.3862 26.4928 54.5488 26.8976 55.4876 27.6416L76.0851 44.1247L76.6073 44.5323" stroke="#4D4D4D" stroke-width="1.27381" stroke-linecap="round" stroke-linejoin="round"/>
<path d="M40 59.7419C40 60.6021 41.6766 61 42.7827 61C44.5408 61 45.9496 60.2043 45.9496 58.4409C45.9496 56.9892 44.9599 56.5054 43.9353 56.1935C42.6313 55.7957 42.1656 55.7419 42.1656 55.3011C42.1656 54.9247 42.5149 54.6774 43.0272 54.6774C43.8305 54.6774 44.0285 54.9677 44.6339 54.9677C45.1346 54.9677 45.4722 54.6237 45.4722 54.1505C45.4722 53.4839 44.6339 53 43.1203 53C41.5485 53 40.1397 53.7849 40.1397 55.4516C40.1397 56.8387 41.1527 57.2258 42.1307 57.5161C43.2018 57.8387 43.9237 57.957 43.9237 58.5376C43.9237 58.914 43.6559 59.2581 42.9224 59.2581C41.956 59.2581 41.3506 58.8172 40.8849 58.8172C40.3144 58.8172 40 59.2688 40 59.7419Z" fill="#4D4D4D"/>
<path d="M46.4631 59.1075C46.2186 59.7204 46.1837 59.9247 46.1837 60.1828C46.1837 60.6129 46.5563 60.8925 47.0918 60.8925C47.7089 60.8925 47.9069 60.5269 48.0815 60.043L48.3144 59.3548H51.4114L51.6443 60.043C51.8189 60.5269 52.0168 60.8925 52.6339 60.8925C53.1695 60.8925 53.5421 60.6129 53.5421 60.1828C53.5421 59.9247 53.5071 59.7204 53.2626 59.1075L51.4463 54.5806C51.1087 53.7312 50.8176 53 49.8512 53C48.9082 53 48.6171 53.7312 48.2794 54.5806L46.4631 59.1075ZM50.8525 57.7419H48.8732L49.8862 54.9355H49.9094L50.8525 57.7419Z" fill="#4D4D4D"/>
<path d="M53.9831 59.957C53.9831 60.5161 54.4372 60.828 54.9262 60.828H57.8952C58.489 60.828 58.8382 60.5054 58.8382 60.0215C58.8382 59.5161 58.489 59.2151 57.8952 59.2151H55.8693V54.0323C55.8693 53.4194 55.4734 53.1075 54.9262 53.1075C54.379 53.1075 53.9831 53.4194 53.9831 54.0323V59.957Z" fill="#4D4D4D"/>
<path d="M59.1565 59.957C59.1565 60.5161 59.6106 60.828 60.0996 60.828H63.0569C63.6507 60.828 64 60.5054 64 60.0215C64 59.5161 63.6507 59.2151 63.0569 59.2151H61.0427V57.7849H62.8241C63.4178 57.7849 63.7671 57.4731 63.7671 56.9785C63.7671 56.4839 63.4178 56.172 62.8241 56.172H61.0427V54.7849H62.9871C63.5809 54.7849 63.9301 54.4839 63.9301 53.9785C63.9301 53.4946 63.5809 53.172 62.9871 53.172H60.0996C59.6106 53.172 59.1565 53.4839 59.1565 54.043V59.957Z" fill="#4D4D4D"/>
</g>
<defs>
<clipPath id="clip0_1592_56949">
<rect width="107" height="80.25" fill="white"/>
</clipPath>
</defs>
</svg>
