<svg width="107" height="81" viewBox="0 0 107 81" fill="none" xmlns="http://www.w3.org/2000/svg">
<g clip-path="url(#clip0_1592_56946)">
<path d="M91.1411 50.0353C91.1595 56.5887 89.5161 63.0399 86.3643 68.7858H17.8334C14.8687 62.9984 13.2901 56.6011 13.2222 50.099C13.2336 45.6111 14.0223 41.1592 15.5532 36.9405C15.8844 36.0106 23.4381 31.8453 23.833 30.9281C24.2279 30.011 17.464 34.2783 17.9735 31.5396C21.3095 25.3614 26.2544 20.2006 32.2844 16.6037C38.3144 13.0068 45.2049 11.1077 52.2262 11.1077C56.605 11.1724 60.948 11.907 65.1044 13.2859C48.8251 18.3811 48.5449 22.2025 48.5449 22.2025C48.5449 22.2025 67.2062 12.5725 73.1931 15.2858C75.5879 16.6615 55.5254 23.4127 56.7992 26.4825C57.2196 27.5143 71.2315 18.2537 79.7278 21.3873C81.5424 23.0489 83.093 24.9776 84.3262 27.1067C88.4614 34.0674 90.8031 41.946 91.1411 50.0353Z" fill="#E0F4FB"/>
<path d="M7.27344 68.7219H98.8349" stroke="#4D4D4D" stroke-width="0.636905" stroke-miterlimit="10"/>
<path d="M55.4875 27.6416L76.085 44.1247L71.0789 49.1053H69.9325C69.7418 48.3156 69.2936 47.612 68.6587 47.1054L54.392 35.6411C53.7575 35.139 52.972 34.8658 52.1628 34.8658C51.3536 34.8658 50.5682 35.139 49.9337 35.6411L35.667 47.1309C35.032 47.6375 34.5838 48.3411 34.3932 49.1308L33.4123 48.6722L28.5464 43.8444L48.8891 27.6416C49.8279 26.8976 50.9905 26.4928 52.1883 26.4928C53.3861 26.4928 54.5487 26.8976 55.4875 27.6416Z" fill="#99D9F4"/>
<path d="M55.4873 27.6416C54.5485 26.8976 53.3859 26.4928 52.1881 26.4928C50.9903 26.4928 49.8277 26.8976 48.889 27.6416L28.5972 43.8699L29.871 45.1437L47.8572 30.6605C48.7959 29.9166 49.9585 29.5117 51.1563 29.5117C52.3541 29.5117 53.5168 29.9166 54.4555 30.6605L76.1103 44.1629L55.4873 27.6416Z" fill="#75ACE4"/>
<path d="M34.5 65V50.5V48L51 35H53.5L70 49V64.5C70 67.3 67.6667 68 66.5 68H38.5C35.3 68 34.5 66 34.5 65Z" fill="white"/>
<path d="M69.9327 49.169C69.742 48.3793 69.2938 47.6757 68.6588 47.1691L54.3922 35.7048C53.7577 35.2026 52.9722 34.9294 52.163 34.9294C51.3538 34.9294 50.5684 35.2026 49.9338 35.7048L35.6672 47.1309C35.0322 47.6375 34.584 48.3411 34.3934 49.1307C34.3363 49.3902 34.3064 49.6549 34.3042 49.9205V50.8631L45.6029 41.9465C46.2374 41.4443 47.0229 41.1711 47.8321 41.1711C48.6412 41.1711 49.4267 41.4443 50.0612 41.9465L67.0029 51.0415C67.6379 51.5481 68.0861 52.2517 68.2767 53.0413C68.3338 53.3008 68.3637 53.5655 68.3659 53.8311V67.2061C68.8678 66.8983 69.2854 66.4706 69.5811 65.9614C69.8768 65.4522 70.0414 64.8776 70.06 64.2891V49.946C70.0444 49.6833 70.0018 49.4229 69.9327 49.169Z" fill="#BCD3DC"/>
<path d="M34.3928 49.9461C34.3664 49.6878 34.3664 49.4274 34.3928 49.1691C34.5756 48.3656 35.0245 47.6474 35.6667 47.131L49.9333 35.6667C50.5678 35.1646 51.3533 34.8914 52.1625 34.8914C52.9717 34.8914 53.7571 35.1646 54.3917 35.6667L68.6583 47.131C69.2933 47.6376 69.7415 48.3412 69.9321 49.1309C69.9892 49.3903 70.0191 49.655 70.0213 49.9206V64.2892C70.0213 65.2352 69.6455 66.1423 68.9766 66.8112C68.3078 67.4801 67.4006 67.8559 66.4546 67.8559H57.538" stroke="#4D4D4D" stroke-width="1.27381" stroke-linecap="round" stroke-linejoin="round"/>
<path d="M57.5 67.8559H37.9212C36.9752 67.8559 36.068 67.4801 35.3991 66.8112C34.7303 66.1424 34.3545 65.2352 34.3545 64.2892V55.3726" stroke="#4D4D4D" stroke-width="1.27381" stroke-linecap="round" stroke-linejoin="round"/>
<path d="M27.7822 44.5832L28.5975 43.9209L48.8893 27.6416C49.828 26.8976 50.9906 26.4928 52.1884 26.4928C53.3862 26.4928 54.5488 26.8976 55.4876 27.6416L76.0851 44.1247L76.6073 44.5323" stroke="#4D4D4D" stroke-width="1.27381" stroke-linecap="round" stroke-linejoin="round"/>
<path d="M64.4005 53.4897C64.3377 53.3749 64.2446 53.2796 64.1314 53.2142C64.0121 53.1528 63.8781 53.1257 63.7444 53.1358L59.7273 53.1405C59.5919 53.1392 59.4587 53.1752 59.3423 53.2445C59.2288 53.3122 59.1367 53.4107 59.0768 53.5286C59.0202 53.645 58.9941 53.7739 59.0009 53.9031C58.9966 54.0982 59.0646 54.2879 59.1919 54.4357C59.2622 54.5109 59.3485 54.5694 59.4443 54.6068C59.5402 54.6442 59.6433 54.6597 59.7459 54.652L60.9301 54.645L60.9486 60.1335C60.9399 60.2483 60.9553 60.3636 60.9938 60.4721C61.0322 60.5806 61.0928 60.6799 61.1718 60.7636C61.337 60.905 61.5477 60.9821 61.7652 60.9809C61.9826 60.9796 62.1924 60.9 62.3559 60.7566C62.4362 60.6737 62.4983 60.5749 62.5381 60.4666C62.578 60.3583 62.5948 60.2429 62.5874 60.1277L62.5689 54.6392L63.753 54.6322C63.8581 54.6407 63.9636 54.625 64.0616 54.5863C64.1596 54.5476 64.2474 54.4869 64.3182 54.4088C64.443 54.2593 64.5092 54.0694 64.5044 53.8747C64.5033 53.7396 64.4675 53.607 64.4005 53.4897ZM44.4695 57.6907C44.7403 57.6459 45.0047 57.5686 45.257 57.4604C45.4932 57.3592 45.7107 57.2187 45.9001 57.0449C46.0869 56.8733 46.2355 56.6643 46.3363 56.4314C46.4446 56.1791 46.4997 55.9071 46.4982 55.6324C46.5249 55.2887 46.4746 54.9433 46.351 54.6215C46.2274 54.2997 46.0335 54.0094 45.7835 53.772C45.2077 53.3365 44.4944 53.1227 43.774 53.1698L41.8504 53.1699C41.7357 53.1613 41.6204 53.1767 41.5119 53.2151C41.4034 53.2535 41.3041 53.3142 41.2203 53.3931C41.0671 53.5666 40.9884 53.7935 41.0014 54.0246L41.0557 60.1702C41.0504 60.2844 41.0689 60.3985 41.1099 60.5052C41.1509 60.612 41.2135 60.709 41.2939 60.7904C41.4563 60.9353 41.666 61.0159 41.8837 61.0169C42.1013 61.018 42.3118 60.9393 42.4755 60.7959C42.5533 60.7112 42.6128 60.6114 42.6505 60.5028C42.6881 60.3942 42.7031 60.279 42.6945 60.1644L42.693 57.7986L45.1262 60.7352C45.203 60.8273 45.2997 60.9008 45.4091 60.95C45.5185 60.9992 45.6377 61.0228 45.7575 61.0191C45.8679 61.0209 45.9774 60.9987 46.0785 60.9541C46.1795 60.9095 46.2697 60.8435 46.3428 60.7608C46.4189 60.683 46.479 60.5909 46.5196 60.4898C46.5601 60.3888 46.5804 60.2807 46.5791 60.1718C46.5716 59.9889 46.4953 59.8156 46.3655 59.6866L44.4695 57.6907ZM42.6587 56.557L42.6885 54.6784L43.8202 54.6738C44.0905 54.6618 44.3554 54.7526 44.5615 54.928C44.6577 55.0181 44.7332 55.128 44.7825 55.2503C44.8318 55.3725 44.8538 55.5041 44.8469 55.6357C44.853 55.7675 44.8305 55.8991 44.781 56.0214C44.7316 56.1437 44.6563 56.2539 44.5603 56.3445C44.3605 56.5244 44.099 56.6204 43.8302 56.6124L42.6587 56.557ZM50.7606 59.3556L48.7446 59.3629L48.7136 57.784L50.5073 57.7836C50.6168 57.7899 50.7265 57.7726 50.8288 57.7328C50.931 57.6929 51.0235 57.6315 51.0999 57.5528C51.1704 57.4817 51.2256 57.397 51.2624 57.3039C51.2991 57.2108 51.3166 57.1113 51.3137 57.0112C51.3191 56.813 51.2459 56.6206 51.1102 56.4761C51.0314 56.4013 50.9379 56.3439 50.8356 56.3075C50.7332 56.271 50.6244 56.2565 50.5161 56.2647L48.7225 56.2652L48.719 54.6788L50.6426 54.6787C50.7878 54.6809 50.9307 54.6423 51.0551 54.5674C51.1652 54.5016 51.2559 54.4079 51.3181 54.2957C51.3935 54.1508 51.4229 53.9863 51.4024 53.8242C51.3818 53.6621 51.3122 53.5101 51.203 53.3886C51.1288 53.3113 51.0384 53.2513 50.9383 53.2131C50.8382 53.1748 50.7308 53.1592 50.624 53.1673L47.9184 53.1779C47.7993 53.1694 47.6797 53.1885 47.5691 53.2337C47.4585 53.2789 47.3598 53.349 47.2808 53.4386C47.1291 53.6333 47.0522 53.876 47.0642 54.1225L47.0965 60.0557C47.0922 60.1665 47.1117 60.277 47.1537 60.3796C47.1957 60.4823 47.2591 60.5748 47.3398 60.6509C47.4206 60.7265 47.5156 60.7855 47.6192 60.8243C47.7229 60.8631 47.8332 60.8811 47.9438 60.8773L50.7517 60.8744C50.9008 60.879 51.0481 60.8413 51.1767 60.7656C51.2907 60.6984 51.3829 60.5998 51.4422 60.4815C51.4945 60.3681 51.5196 60.2442 51.5156 60.1194C51.5196 59.9214 51.4467 59.7296 51.3121 59.5843C51.2358 59.5176 51.1465 59.4672 51.0499 59.4365C50.9533 59.4057 50.8513 59.3952 50.7505 59.4055L50.7606 59.3556ZM57.884 53.0009C57.776 52.9957 57.6681 53.0123 57.5667 53.0499C57.4653 53.0874 57.3725 53.145 57.2939 53.2193C57.2136 53.3022 57.1516 53.401 57.1117 53.5093C57.0719 53.6176 57.0551 53.733 57.0625 53.8482L57.072 57.9702L53.5988 53.3672C53.5141 53.2626 53.4089 53.1766 53.2896 53.1144C53.1703 53.0522 53.0394 53.0152 52.9052 53.0057C52.7972 53.0005 52.6893 53.0171 52.5878 53.0547C52.4864 53.0922 52.3937 53.1498 52.3151 53.2241C52.2348 53.307 52.1727 53.4058 52.1329 53.5141C52.093 53.6224 52.0763 53.7378 52.0836 53.853L52.1253 60.061C52.1187 60.1739 52.1354 60.287 52.1742 60.3932C52.213 60.4994 52.2732 60.5966 52.351 60.6787C52.4293 60.7541 52.5221 60.8128 52.6238 60.8513C52.7255 60.8898 52.8339 60.9072 52.9425 60.9025C53.0504 60.907 53.1582 60.89 53.2595 60.8526C53.3608 60.8151 53.4536 60.7578 53.5326 60.6842C53.6129 60.6012 53.675 60.5025 53.7148 60.3942C53.7547 60.2858 53.7715 60.1704 53.7641 60.0552L53.757 55.9857L57.2177 60.5861C57.313 60.6914 57.4282 60.7766 57.5568 60.8368C57.7067 60.9209 57.8796 60.9546 58.0501 60.933C58.2206 60.9114 58.3797 60.8356 58.5039 60.7168C58.5816 60.6321 58.6411 60.5324 58.6788 60.4238C58.7165 60.3152 58.7315 60.2 58.7228 60.0853L58.6812 53.8773C58.6891 53.7626 58.6733 53.6475 58.6349 53.5391C58.5965 53.4308 58.5363 53.3314 58.458 53.2472C58.2939 53.1117 58.0834 53.0458 57.8714 53.0634L57.884 53.0009Z" fill="#4D4D4D"/>
</g>
<defs>
<clipPath id="clip0_1592_56946">
<rect width="107" height="80.25" fill="white"/>
</clipPath>
</defs>
</svg>
