<?xml version="1.0" encoding="utf-8"?>
<!-- Generator: Adobe Illustrator 22.1.0, SVG Export Plug-In . SVG Version: 6.00 Build 0)  -->
<svg version="1.1" id="Layer_1" xmlns="http://www.w3.org/2000/svg" xmlns:xlink="http://www.w3.org/1999/xlink" x="0px" y="0px"
	 viewBox="0 0 84 63" style="enable-background:new 0 0 84 63;" xml:space="preserve">
<title>Jobs</title>
<g id="Layer_2_1_">
	<g id="Layer_1-2">
		<g id="category_grid_icon_C_2">
			<rect style="fill:#FFFFFF;fill-opacity:0;" width="84" height="63"/>
			<path style="fill:#E0F4FB;" d="M71.7,39.4c0,5.1-1.3,10.2-3.8,14.7H14.2c-2.3-4.5-3.6-9.6-3.6-14.7c0-3.5,0.6-7,1.8-10.3
				c0.3-0.7,6.2-4,6.5-4.7s-5,2.6-4.6,0.5c5.3-9.9,15.7-16,26.9-16c3.4,0.1,6.8,0.6,10.1,1.7c-12.8,4-13,7-13,7s14.7-7.6,19.4-5.4
				c1.9,1.1-13.9,6.4-12.9,8.8c0.3,0.8,11.3-6.5,18-4c1.4,1.3,2.6,2.8,3.6,4.5C69.6,26.9,71.4,33.1,71.7,39.4z"/>
			<line style="fill:none;stroke:#4D4D4D;stroke-width:0.5;stroke-miterlimit:10;" x1="5.8" y1="54.1" x2="77.7" y2="54.1"/>
			<g id="_Group_">
				<path style="fill:#75ADE4;" d="M60.7,39.7V51c0,1.5-1.2,2.7-2.7,2.7H25.6c-1.5,0-2.7-1.2-2.7-2.7V39.7h16.8V42
					c0,0.3,0.2,0.5,0.5,0.5c0,0,0,0,0,0h3.1c0.3,0,0.5-0.2,0.5-0.5c0,0,0,0,0,0v-2.3C43.9,39.7,60.7,39.7,60.7,39.7z"/>
				<path style="fill:#356A9E;" d="M38.4,41.1v2.3c0,0.3,0.2,0.5,0.5,0.5c0,0,0,0,0,0h3.1c0.3,0,0.5-0.2,0.5-0.5c0,0,0,0,0,0v-0.8
					h-2.4c-0.3,0-0.5-0.2-0.5-0.5c0,0,0,0,0,0v-2.3H22.9v1.3H38.4z"/>
				<path style="fill:#356A9E;" d="M54.2,39.7H43.9v1.3h15.5v11.2c0,0.4-0.1,0.7-0.2,1.1c0.9-0.5,1.5-1.4,1.5-2.4V39.7H54.2z"/>
				<path style="fill:#99D9F4;" d="M60.7,31.3v8.4h-6.4V28.5h3.7C59.4,28.5,60.7,29.8,60.7,31.3C60.7,31.3,60.7,31.3,60.7,31.3z"/>
				<path style="fill:#99D9F4;" d="M54.2,28.7v11H43.9v-5.1c0-0.3-0.2-0.5-0.5-0.5h-3.1c-0.3,0-0.5,0.2-0.5,0.5v5.1H22.9v-8.4
					c0-1.5,1.2-2.8,2.7-2.8c0,0,0,0,0,0h28.6L54.2,28.7z"/>
				<path style="fill:#E0F4FB;" d="M59.5,29.6c-0.4-0.5-1.1-0.8-1.7-0.8H25.4c-1,0-1.9,0.5-2.4,1.4c0.4-0.2,0.9-0.4,1.4-0.4h32.3
					c1,0,1.9,0.3,2.7,0.9L59.5,29.6z"/>
				<path style="fill:#3FA9F5;" d="M59.5,32.5V40h1v-8.5c-0.2-1-0.7-2-1.4-2.8C59.4,30,59.5,31.3,59.5,32.5z"/>
				<path style="fill:#3FA9F5;" d="M38.9,35.1c-0.3,0-0.5,0.2-0.5,0.5v4.1h1v-4.6H38.9z"/>
				<path style="fill:#AFDF8E;" d="M39.7,39.7v-5.1c0-0.3,0.2-0.5,0.5-0.5h3.1c0.3,0,0.5,0.2,0.5,0.5V42c0,0.3-0.2,0.5-0.5,0.5
					c0,0,0,0,0,0h-3.1c-0.3,0-0.5-0.2-0.5-0.5c0,0,0,0,0,0"/>
				<path style="fill:#AFDF8E;" d="M39.7,42v-2.3"/>
				<path style="fill:#FFFFFF;" d="M43.3,34.1h-3.1c-0.3,0-0.5,0.2-0.5,0.5v0.5h3.1v7.4h0.6c0.3,0,0.5-0.2,0.5-0.5c0,0,0,0,0,0v-7.4
					C43.9,34.4,43.6,34.1,43.3,34.1z"/>
				<path style="fill:#FFFFFF;" d="M25,51V31.3c0-1.5,1.2-2.8,2.7-2.8c0,0,0,0,0,0h-2.1c-1.5,0-2.7,1.2-2.7,2.8c0,0,0,0,0,0V51
					c0,1.5,1.2,2.7,2.7,2.7h2.1C26.2,53.7,25,52.5,25,51z"/>
				<path style="fill:none;stroke:#4D4D4D;stroke-linecap:round;stroke-linejoin:round;" d="M22.9,35.1v-3.8c0-1.5,1.2-2.8,2.7-2.8
					c0,0,0,0,0,0h32.3c1.5,0,2.7,1.2,2.7,2.8c0,0,0,0,0,0V51c0,1.5-1.2,2.7-2.7,2.7H25.6c-1.5,0-2.7-1.2-2.7-2.7V39.7"/>
				<line style="fill:none;" x1="22.9" y1="39.7" x2="22.9" y2="35.1"/>
				<path style="fill:none;stroke:#4D4D4D;stroke-linecap:round;stroke-linejoin:round;" d="M35.5,25.9v-2.4c0-0.4,0.5-0.8,1.1-0.8
					H47c0.6,0,1.1,0.3,1.1,0.8v2.4"/>
				<path style="fill:none;stroke:#4D4D4D;stroke-linecap:round;stroke-linejoin:round;" d="M39.7,39.7v-5.1c0-0.3,0.2-0.5,0.5-0.5
					h3.1c0.3,0,0.5,0.2,0.5,0.5V42c0,0.3-0.2,0.5-0.5,0.5c0,0,0,0,0,0h-3.1c-0.3,0-0.5-0.2-0.5-0.5c0,0,0,0,0,0"/>
				<path style="fill:none;" d="M39.7,42v-2.3"/>
				<line style="fill:none;stroke:#4D4D4D;stroke-linecap:round;stroke-linejoin:round;" x1="39.7" y1="39.7" x2="25.4" y2="39.7"/>
				<polyline style="fill:none;stroke:#4D4D4D;stroke-linecap:round;stroke-linejoin:round;" points="58.6,39.7 52.6,39.7 
					43.9,39.7 				"/>
			</g>
		</g>
	</g>
</g>
</svg>
