<svg xmlns="http://www.w3.org/2000/svg" viewBox="0 0 84 63"><title>ic_wcolor_phones</title><g id="Layer_2" data-name="Layer 2"><g id="Layer_1-2" data-name="Layer 1"><g id="category_grid_icon_C_2" data-name="category grid icon C 2"><rect width="84" height="63" style="fill:#fff;opacity:0"/><g id="_Group_" data-name="&lt;Group&gt;"><path d="M72.84,39.43A30.43,30.43,0,0,1,69.09,54.1H15.33a32.93,32.93,0,0,1-3.62-14.67A30.51,30.51,0,0,1,13.5,29.1c.26-.73,6.19-4,6.5-4.72s-5,2.63-4.6.48a30.56,30.56,0,0,1,26.88-16,33.69,33.69,0,0,1,10.11,1.71c-12.78,4-13,7-13,7S54,10,58.75,12.13c1.88,1.08-13.87,6.37-12.87,8.79.33.81,11.33-6.46,18-4a19,19,0,0,1,3.61,4.49A38.38,38.38,0,0,1,72.84,39.43Z" style="fill:#e0f4fb"/><line x1="6.99" y1="54.1" x2="78.88" y2="54.1" style="fill:none;stroke:#4d4d4d;stroke-miterlimit:10;stroke-width:0.5px"/><path d="M54.57,43v7.87a2.94,2.94,0,0,1-3,2.94H42.67v-2.1a2.1,2.1,0,0,0,0-4.2v-2.1h9.49A2.41,2.41,0,0,0,54.57,43Z" style="fill:#9dd7b7"/><path d="M54.57,43v7.87a2.94,2.94,0,0,1-3,2.94H42.67v-2.1a2.1,2.1,0,0,0,0-4.2v-2.1h9.49A2.41,2.41,0,0,0,54.57,43Z" style="fill:#ade1f6"/><path d="M53.44,45v7a2.9,2.9,0,0,1-.32,1.31,2.92,2.92,0,0,0,1.45-2.52V43A2.4,2.4,0,0,1,53.44,45Z" style="fill:#fdce74"/><path d="M54.57,19.84V43a2.41,2.41,0,0,1-2.41,2.41h-19A2.41,2.41,0,0,1,30.77,43V19.84a2.41,2.41,0,0,1,2.41-2.42h19A2.41,2.41,0,0,1,54.57,19.84Z" style="fill:#e7e7e7"/><path d="M52.16,17.41h-19A2.4,2.4,0,0,0,31,18.81a2.4,2.4,0,0,1,.93-.19h19A2.41,2.41,0,0,1,53.32,21V44.22a2.38,2.38,0,0,1-.23,1A2.41,2.41,0,0,0,54.57,43V19.84A2.41,2.41,0,0,0,52.16,17.41Z" style="fill:#b1b0c3"/><path d="M32.87,43.07V19.9a2.41,2.41,0,0,1,2.41-2.42H52.7a2.39,2.39,0,0,0-.54-.07h-19a2.41,2.41,0,0,0-2.41,2.42V43a2.41,2.41,0,0,0,2.41,2.41h1.56A2.41,2.41,0,0,1,32.87,43.07Z" style="fill:#fff"/><path d="M54.57,14.77v5.07a2.41,2.41,0,0,0-2.41-2.42h-19a2.41,2.41,0,0,0-2.41,2.42V14.77a3,3,0,0,1,3-3H51.61A3,3,0,0,1,54.57,14.77Z" style="fill:#fddfb1"/><path d="M51.61,11.81H42.67v5.6h9.49a4.19,4.19,0,0,1,1.41.46V12.68A4.34,4.34,0,0,0,51.61,11.81Z" style="fill:#ade1f6"/><path d="M53.44,12.46v5.33a2.4,2.4,0,0,1,.73.72,2.88,2.88,0,0,0,.39-1.46V14.77A2.94,2.94,0,0,0,53.44,12.46Z" style="fill:#fdce74"/><path d="M42.67,47.51a2.1,2.1,0,1,1-2.1,2.1A2.11,2.11,0,0,1,42.67,47.51Z" style="fill:#fff"/><path d="M42.67,51.71v2.1H33.72a2.94,2.94,0,0,1-3-2.94V43a2.41,2.41,0,0,0,2.41,2.41h9.49v2.1a2.1,2.1,0,0,0,0,4.2Z" style="fill:#fddfb1"/><path d="M54.57,46.89v4a2.94,2.94,0,0,1-3,2.94H33.72a2.94,2.94,0,0,1-3-2.94v-4" style="fill:none;stroke:#4d4d4d;stroke-linecap:round;stroke-miterlimit:10"/><path d="M30.77,15.95V14.77a3,3,0,0,1,3-3H51.61a3,3,0,0,1,3,3v1.18" style="fill:none;stroke:#4d4d4d;stroke-linecap:round;stroke-miterlimit:10"/><line x1="30.77" y1="43.01" x2="30.77" y2="19.84" style="fill:none;stroke:#4d4d4d;stroke-linecap:round;stroke-miterlimit:10"/><path d="M54.57,43a2.41,2.41,0,0,1-2.41,2.41h-19A2.41,2.41,0,0,1,30.77,43" style="fill:none;stroke:#4d4d4d;stroke-miterlimit:10"/><line x1="54.57" y1="19.84" x2="54.57" y2="43.01" style="fill:none;stroke:#4d4d4d;stroke-linecap:round;stroke-miterlimit:10"/><path d="M30.77,19.84a2.41,2.41,0,0,1,2.41-2.42h19a2.41,2.41,0,0,1,2.41,2.42" style="fill:none;stroke:#4d4d4d;stroke-miterlimit:10"/><line x1="46.87" y1="14.61" x2="38.47" y2="14.61" style="fill:none;stroke:#4d4d4d;stroke-linecap:round;stroke-miterlimit:10"/><path d="M42.67,51.71a2.1,2.1,0,1,1,2.1-2.1A2.1,2.1,0,0,1,42.67,51.71Z" style="fill:none;stroke:#4d4d4d;stroke-miterlimit:10"/></g></g></g></g></svg>