<?xml version="1.0" encoding="utf-8"?>
<!-- Generator: Adobe Illustrator 22.1.0, SVG Export Plug-In . SVG Version: 6.00 Build 0)  -->
<svg version="1.1" id="Layer_1" xmlns="http://www.w3.org/2000/svg" xmlns:xlink="http://www.w3.org/1999/xlink" x="0px" y="0px"
	 viewBox="0 0 84 63" style="enable-background:new 0 0 84 63;" xml:space="preserve">
<title>See Other Categories</title>
<g id="Layer_2_1_">
	<g id="Layer_1-2">
		<g id="category_grid_icon_C_2">
			<rect style="fill:#FFFFFF;fill-opacity:0;" width="84" height="63"/>
			<path style="fill:#E0F4FB;" d="M71.9,39.2c0,5.1-1.3,10.2-3.8,14.7H14.4c-2.3-4.5-3.6-9.6-3.6-14.7c0-3.5,0.6-7,1.8-10.3
				c0.3-0.7,6.2-4,6.5-4.7s-5,2.6-4.6,0.5c5.3-9.9,15.7-16,26.9-16c3.4,0.1,6.8,0.6,10.1,1.7c-12.8,4-13,7-13,7s14.6-7.5,19.3-5.4
				c1.9,1.1-13.9,6.4-12.9,8.8c0.3,0.8,11.3-6.5,18-4c1.4,1.3,2.6,2.8,3.6,4.5C69.8,26.6,71.6,32.8,71.9,39.2z"/>
			<line style="fill:none;stroke:#4D4D4D;stroke-width:0.5;stroke-miterlimit:10;" x1="6.1" y1="53.8" x2="77.9" y2="53.8"/>
			<ellipse style="fill:#FFFFFF;" cx="54.5" cy="34.5" rx="3" ry="3"/>
			<circle style="fill:#FFFFFF;" cx="42.2" cy="34.5" r="3"/>
			<ellipse style="fill:#FFFFFF;" cx="29.8" cy="34.5" rx="3" ry="3"/>
			<ellipse style="fill:#A4C5DC;" cx="53.3" cy="35.4" rx="3" ry="3"/>
			<circle style="fill:#D09E9E;" cx="41" cy="35.4" r="3"/>
			<ellipse style="fill:#B4CBA5;" cx="28.6" cy="35.4" rx="3" ry="3"/>
			<path style="fill:none;stroke:#4D4D4D;stroke-width:0.5;stroke-linecap:round;stroke-linejoin:round;" d="M28.6,32.3"/>
			<path style="fill:none;stroke:#4D4D4D;stroke-width:0.5;stroke-linecap:round;stroke-linejoin:round;" d="M30.1,32.7"/>
			<path style="fill:none;stroke:#4D4D4D;stroke-linecap:round;stroke-linejoin:round;" d="M28.6,32.3c-1.7,0-3,1.4-3,3
				c0,1.7,1.4,3,3,3c1.7,0,3-1.4,3-3c0-0.5-0.1-1-0.4-1.5"/>
			<path style="fill:none;stroke:#4D4D4D;stroke-width:0.5;stroke-linecap:round;stroke-linejoin:round;" d="M42.5,32.7"/>
			<path style="fill:none;stroke:#4D4D4D;stroke-linecap:round;stroke-linejoin:round;" d="M41,32.3c-1.7,0-3,1.4-3,3s1.4,3,3,3
				c1.7,0,3-1.4,3-3c0-0.5-0.1-1-0.4-1.5"/>
			<path style="fill:none;stroke:#4D4D4D;stroke-width:0.5;stroke-linecap:round;stroke-linejoin:round;" d="M54.8,32.7"/>
			<path style="fill:none;stroke:#4D4D4D;stroke-linecap:round;stroke-linejoin:round;" d="M53.3,32.3c-1.7,0-3,1.4-3,3
				c0,1.7,1.4,3,3,3c1.7,0,3-1.4,3-3c0-0.5-0.2-1.1-0.4-1.5"/>
		</g>
	</g>
</g>
</svg>
