<svg width="107" height="81" viewBox="0 0 107 81" fill="none" xmlns="http://www.w3.org/2000/svg">
<mask id="mask0_1396_6536" style="mask-type:luminance" maskUnits="userSpaceOnUse" x="0" y="0" width="107" height="81">
<path d="M107 0H0V80.25H107V0Z" fill="white"/>
</mask>
<g mask="url(#mask0_1396_6536)">
<path d="M91.1411 50.0353C91.1595 56.5887 89.5161 63.0399 86.3643 68.7858H17.8334C14.8687 62.9984 13.2901 56.6011 13.2222 50.099C13.2336 45.6111 14.0223 41.1592 15.5532 36.9405C15.8844 36.0106 23.4381 31.8453 23.833 30.9281C24.2279 30.011 17.464 34.2783 17.9735 31.5396C21.3095 25.3614 26.2544 20.2006 32.2844 16.6037C38.3144 13.0068 45.2049 11.1077 52.2262 11.1077C56.605 11.1724 60.948 11.907 65.1044 13.2859C48.8251 18.3811 48.5449 22.2025 48.5449 22.2025C48.5449 22.2025 67.2062 12.5725 73.1931 15.2858C75.5879 16.6615 55.5254 23.4127 56.7992 26.4825C57.2196 27.5143 71.2315 18.2537 79.7278 21.3873C81.5424 23.0489 83.093 24.9776 84.3262 27.1067C88.4614 34.0674 90.8031 41.946 91.1411 50.0353Z" fill="#E0F4FB"/>
<path d="M7.27344 68.7219H98.8349" stroke="#4D4D4D" stroke-width="0.636905" stroke-miterlimit="10"/>
</g>
<path d="M83.6777 15H81.3691L77.6426 8.51953H77.5898C77.6055 8.78906 77.6191 9.06055 77.6309 9.33398C77.6426 9.60742 77.6543 9.88086 77.666 10.1543C77.6777 10.4238 77.6895 10.6953 77.7012 10.9688V15H76.0781V6.43359H78.3691L82.0898 12.8496H82.1309C82.123 12.584 82.1133 12.3203 82.1016 12.0586C82.0898 11.7969 82.0781 11.5352 82.0664 11.2734C82.0586 11.0117 82.0508 10.75 82.043 10.4883V6.43359H83.6777V15Z" fill="#E21E30"/>
<path d="M91.1334 15H86.1998V6.43359H91.1334V7.92188H88.0162V9.80273H90.9166V11.291H88.0162V13.5H91.1334V15Z" fill="#E21E30"/>
<path d="M103.81 6.43359L101.63 15H99.5618L98.4016 10.5C98.3782 10.4141 98.347 10.2832 98.3079 10.1074C98.2688 9.93164 98.2278 9.74023 98.1848 9.5332C98.1419 9.32227 98.1028 9.125 98.0677 8.94141C98.0364 8.75391 98.0149 8.60547 98.0032 8.49609C97.9915 8.60547 97.968 8.75195 97.9329 8.93555C97.9016 9.11914 97.8645 9.31445 97.8216 9.52148C97.7825 9.72852 97.7434 9.92188 97.7044 10.1016C97.6653 10.2812 97.6341 10.418 97.6106 10.5117L96.4563 15H94.3938L92.2083 6.43359H93.9954L95.0911 11.1094C95.1223 11.25 95.1575 11.418 95.1966 11.6133C95.2395 11.8086 95.2805 12.0137 95.3196 12.2285C95.3626 12.4395 95.3997 12.6445 95.4309 12.8438C95.4661 13.0391 95.4915 13.209 95.5071 13.3535C95.5266 13.2051 95.552 13.0332 95.5833 12.8379C95.6145 12.6387 95.6477 12.4375 95.6829 12.2344C95.722 12.0273 95.761 11.8359 95.8001 11.6602C95.8391 11.4844 95.8743 11.3418 95.9055 11.2324L97.1536 6.43359H98.8704L100.118 11.2324C100.146 11.3379 100.177 11.4805 100.212 11.6602C100.251 11.8359 100.29 12.0273 100.329 12.2344C100.368 12.4414 100.404 12.6445 100.435 12.8438C100.47 13.0391 100.495 13.209 100.511 13.3535C100.538 13.1582 100.575 12.9219 100.622 12.6445C100.673 12.3633 100.726 12.084 100.781 11.8066C100.839 11.5293 100.89 11.2969 100.933 11.1094L102.023 6.43359H103.81Z" fill="#E21E30"/>
<rect x="30" y="31" width="46" height="30" rx="4" fill="white"/>
<mask id="mask1_1396_6536" style="mask-type:luminance" maskUnits="userSpaceOnUse" x="27" y="29" width="53" height="34">
<path d="M79.3125 29H27V63H79.3125V29Z" fill="white"/>
</mask>
<g mask="url(#mask1_1396_6536)">
<path fill-rule="evenodd" clip-rule="evenodd" d="M33.924 30.3848C31.2784 30.3848 29.1289 32.5343 29.1289 35.1799V56.7994C29.1289 59.4449 31.2784 61.5945 33.924 61.5945H72.3471C74.9927 61.5945 77.1423 59.4449 77.1423 56.7994V35.1799C77.1423 32.5343 74.9927 30.3848 72.3471 30.3848H33.924ZM32.7252 35.1799C33.3866 35.1799 33.924 34.6425 33.924 33.9811C33.924 33.3197 33.3866 32.7823 32.7252 32.7823C32.0638 32.7823 31.5264 33.3197 31.5264 33.9811C31.5264 34.6425 32.0638 35.1799 32.7252 35.1799ZM33.924 57.9981C33.924 58.6595 33.3866 59.1969 32.7252 59.1969C32.0638 59.1969 31.5264 58.6595 31.5264 57.9981C31.5264 57.3367 32.0638 56.7994 32.7252 56.7994C33.3866 56.7994 33.924 57.3367 33.924 57.9981ZM73.5666 59.1969C74.228 59.1969 74.7654 58.6595 74.7654 57.9981C74.7654 57.3367 74.228 56.7994 73.5666 56.7994C72.9052 56.7994 72.3678 57.3367 72.3678 57.9981C72.3678 58.6595 72.9052 59.1969 73.5666 59.1969ZM74.7654 33.9811C74.7654 34.6425 74.228 35.1799 73.5666 35.1799C72.9052 35.1799 72.3678 34.6425 72.3678 33.9811C72.3678 33.3197 72.9052 32.7823 73.5666 32.7823C74.228 32.7823 74.7654 33.3197 74.7654 33.9811ZM39.5872 42.9927V52.0042H42.8322V39.9957H36.3216V42.9927H39.5872ZM47.1726 46.9817V51.9836H56.9283V48.9866H50.4176V46.9817H54.7581C55.3781 46.9817 55.8948 46.7957 56.3082 46.403C56.7216 46.0103 56.9283 45.5349 56.9283 44.9769V41.9799C56.9283 41.4219 56.7216 40.9465 56.3082 40.5538C55.8948 40.1611 55.3781 39.975 54.7581 39.975H47.1726V42.972H53.6833V44.9769H49.3429C48.7228 44.9769 48.2061 45.1629 47.7927 45.5556C47.3793 45.9483 47.1726 46.4237 47.1726 46.9817ZM60.1939 48.9866V51.9836H67.7793C68.3994 51.9836 68.9161 51.7975 69.3295 51.4048C69.7429 51.0121 69.9495 50.5367 69.9495 49.9787V41.9799C69.9495 41.4219 69.7429 40.9465 69.3295 40.5538C68.9161 40.1611 68.3994 39.975 67.7793 39.975H60.1939V42.972H66.7046V44.9769H62.3641V46.9817H66.7046V48.9866H60.1939Z" fill="#535659" stroke="white" stroke-width="0.7"/>
</g>
</svg>
