<?xml version="1.0" encoding="utf-8"?>
<!-- Generator: Adobe Illustrator 22.1.0, SVG Export Plug-In . SVG Version: 6.00 Build 0)  -->
<svg version="1.1" id="Layer_1" xmlns="http://www.w3.org/2000/svg" xmlns:xlink="http://www.w3.org/1999/xlink" x="0px" y="0px"
	 viewBox="0 0 84 63" style="enable-background:new 0 0 84 63;" xml:space="preserve">
<title>Cars</title>
<g>
	<g id="Layer_2_1_">
		<g id="Layer_1-2">
			<g id="category_grid_icon_C_2">
				<rect style="fill:#FFFFFF;fill-opacity:0;" width="84" height="63"/>
				<path style="fill:#E0F4FB;" d="M71.6,39.4c0,5.1-1.3,10.2-3.8,14.7H14c-2.3-4.5-3.6-9.6-3.6-14.7c0-3.5,0.6-7,1.8-10.3
					c0.3-0.7,6.2-4,6.5-4.7s-5,2.6-4.6,0.5c5.3-9.9,15.7-16,26.9-16c3.4,0.1,6.8,0.6,10.1,1.7c-12.8,4-13,7-13,7s14.6-7.6,19.3-5.4
					c1.9,1.1-13.9,6.4-12.9,8.8c0.3,0.8,11.3-6.5,18-4c1.4,1.3,2.6,2.8,3.6,4.5C69.4,26.9,71.3,33.1,71.6,39.4z"/>
				<line style="fill:none;stroke:#4D4D4D;stroke-width:0.5;stroke-miterlimit:10;" x1="5.7" y1="54.1" x2="77.6" y2="54.1"/>
				<g id="_Group_">
					<path style="fill:#CEEBDB;" d="M65,41v4.2c0,1.5-1.3,2.8-2.8,2.8h-1.4c-0.4-2.7-2.8-4.5-5.5-4.2c-2.2,0.3-3.9,2-4.2,4.2H31.4
						c-0.4-2.7-2.8-4.5-5.5-4.2c-2.2,0.3-3.9,2-4.2,4.2h-1.5c-2.8,0-2.8-1.4-2.8-2.8v-5.6c0-1.5,1.3-2.8,2.8-2.8h4.2l7.3-7.3
						c0.3-0.3,0.6-0.4,1-0.4h10.8c0.3,0,0.6,0.1,0.9,0.3l9.4,7.4H58C60.8,36.8,65,38.9,65,41z M28.7,36.8H49l-6-4.5h-9.9L28.7,36.8z
						"/>
					<path style="fill:#FFFFFF;" d="M19.4,45.2v-5.6c0-1.5,1.3-2.8,2.8-2.8h-2c-1.5,0-2.8,1.3-2.8,2.8v5.6c0,1.4,0,2.8,2.8,2.8h1.5
						l0,0C19.4,47.8,19.4,46.5,19.4,45.2z"/>
					<path style="fill:#FFFFFF;" d="M57.9,43.8c-0.3,0-0.7,0-1,0.1c2,0.4,3.5,2.1,3.8,4.1h1.5c0.2,0,0.4,0,0.5-0.1
						C62.4,45.6,60.3,43.8,57.9,43.8z"/>
					<path style="fill:#FFFFFF;" d="M33.7,29.5c0.3-0.3,0.6-0.4,1-0.4h-2c-0.4,0-0.7,0.1-1,0.4l-7.3,7.3h2L33.7,29.5z"/>
					<path style="fill:#FFFFFF;" d="M51,48L51,48z"/>
					<path style="fill:#FFFFFF;" d="M28.5,43.8c-0.3,0-0.7,0-1,0.1c2,0.4,3.5,2.1,3.8,4.1h2C33,45.6,31,43.8,28.5,43.8z"/>
					<path style="fill:#9DD7B7;" d="M21.2,48h0.5c0.1-0.6,0.3-1.1,0.5-1.6C21.8,46.8,21.4,47.4,21.2,48z"/>
					<polygon style="fill:#9DD7B7;" points="48.2,37.9 46.7,36.8 28.9,36.8 27.8,37.9 					"/>
					<path style="fill:#9DD7B7;" d="M58,36.8h-4.2l-9.4-7.4c-0.3-0.2-0.6-0.3-0.9-0.3H32.7c-0.4,0-0.7,0.1-1,0.4l-7.3,7.3h-4.2
						c-1.1,0-2.2,0.7-2.6,1.8c0.5-0.4,1.1-0.6,1.8-0.7h4.2l7.3-7.3c0.3-0.3,0.6-0.4,1-0.4h10.8c0.3,0,0.6,0.1,0.9,0.3l9.4,7.4h4.2
						c2.8,0,7,2.1,7,4.2v4.2c0,0.4-0.1,0.7-0.2,1.1c0.6-0.5,1-1.3,1-2.2V41C65,38.9,60.8,36.8,58,36.8z"/>
					<path style="fill:#9DD7B7;" d="M50.6,48h0.5c0.1-0.6,0.3-1.1,0.5-1.6C51.2,46.8,50.8,47.4,50.6,48z"/>
					<path style="fill:#9AB4CE;" d="M60.8,48c0,0.2,0.1,0.5,0.1,0.7c0,2.7-2.2,4.9-4.9,4.9c-2.7,0-4.9-2.2-4.9-4.9
						c0-0.2,0-0.5,0.1-0.7c0.4-2.7,2.8-4.5,5.5-4.2C58.8,44.1,60.5,45.8,60.8,48L60.8,48z M58,48.7c0-1.2-0.9-2.1-2.1-2.1
						s-2.1,0.9-2.1,2.1s0.9,2.1,2.1,2.1c0,0,0,0,0,0C57.1,50.8,58,49.9,58,48.7z"/>
					<circle style="fill:#FFFFFF;" cx="55.9" cy="48.7" r="2.1"/>
					<polygon style="fill:#FDDFB1;" points="49,36.8 28.7,36.8 33.1,32.3 43,32.3 					"/>
					<polygon style="fill:#FDCE74;" points="42,33.2 46.7,36.8 49,36.8 43,32.3 33.1,32.3 32.2,33.2 					"/>
					<path style="fill:#9AB4CE;" d="M31.4,48c0,0.2,0.1,0.5,0.1,0.7c0,2.7-2.2,4.9-4.9,4.9s-4.9-2.2-4.9-4.9c0-0.2,0-0.5,0.1-0.7
						c0.4-2.7,2.8-4.5,5.5-4.2C29.4,44.1,31.1,45.8,31.4,48L31.4,48z M28.6,48.7c0-1.2-0.9-2.1-2.1-2.1s-2.1,0.9-2.1,2.1
						c0,1.2,0.9,2.1,2.1,2.1l0,0C27.7,50.8,28.6,49.9,28.6,48.7L28.6,48.7z"/>
					<circle style="fill:#FFFFFF;" cx="26.5" cy="48.7" r="2.1"/>
					<path style="fill:none;stroke:#4D4D4D;stroke-miterlimit:10;" d="M31.4,48c0,0.2,0.1,0.5,0.1,0.7c0,2.7-2.2,4.9-4.9,4.9
						s-4.9-2.2-4.9-4.9c0-0.2,0-0.5,0.1-0.7c0.4-2.7,2.8-4.5,5.5-4.2C29.4,44.1,31.1,45.8,31.4,48L31.4,48z"/>
					<circle style="fill:none;stroke:#4D4D4D;stroke-miterlimit:10;" cx="26.5" cy="48.7" r="2.1"/>
					<circle style="fill:none;stroke:#4D4D4D;stroke-miterlimit:10;" cx="55.9" cy="48.7" r="2.1"/>
					<path style="fill:none;stroke:#4D4D4D;stroke-miterlimit:10;" d="M60.8,48c0,0.2,0.1,0.5,0.1,0.7c0,2.7-2.2,4.9-4.9,4.9
						c-2.7,0-4.9-2.2-4.9-4.9c0-0.2,0-0.5,0.1-0.7c0.4-2.7,2.8-4.5,5.5-4.2C58.8,44.1,60.5,45.8,60.8,48L60.8,48z"/>
					<path style="fill:none;stroke:#4D4D4D;stroke-linecap:round;stroke-linejoin:round;" d="M30.3,31l-5.8,5.8h-4.2
						c-1.5,0-2.8,1.3-2.8,2.8v5.6c0,1.4,0,2.8,2.8,2.8l0,0"/>
					<path style="fill:none;stroke:#4D4D4D;stroke-linecap:round;stroke-linejoin:round;" d="M62.2,48L62.2,48
						c1.5,0,2.8-1.3,2.8-2.8V41c0-2.1-4.2-4.2-7-4.2h-4.2l-9.4-7.4c-0.3-0.2-0.6-0.3-0.9-0.3H32.7c-0.4,0-0.7,0.1-1,0.4"/>
					<line style="fill:none;stroke:#4D4D4D;stroke-linecap:round;stroke-linejoin:round;" x1="49.4" y1="48" x2="33.5" y2="48"/>
					<polygon style="fill:none;stroke:#4D4D4D;stroke-linejoin:round;" points="49,36.8 28.7,36.8 33.1,32.3 43,32.3 					"/>
				</g>
			</g>
		</g>
	</g>
</g>
</svg>
