<?xml version="1.0" encoding="utf-8"?>
<!-- Generator: Adobe Illustrator 22.1.0, SVG Export Plug-In . SVG Version: 6.00 Build 0)  -->
<svg version="1.1" id="Layer_1" xmlns="http://www.w3.org/2000/svg" xmlns:xlink="http://www.w3.org/1999/xlink" x="0px" y="0px"
	 viewBox="0 0 84 63" style="enable-background:new 0 0 84 63;" xml:space="preserve">
<title>Motorcycles</title>
<g id="Layer_2_1_">
	<g id="Layer_1-2">
		<g id="category_grid_icon_C_2">
			<path style="fill:#E0F4FB;" d="M72.6,39.1c0,5.1-1.3,10.2-3.8,14.7H15.1c-2.3-4.5-3.6-9.6-3.6-14.7c0-3.5,0.6-7,1.8-10.3
				c0.3-0.7,6.2-4,6.5-4.7s-5,2.6-4.6,0.5c5.3-9.9,15.7-16,26.9-16c3.4,0.1,6.8,0.6,10.1,1.7c-12.8,4-13,7-13,7s14.6-7.5,19.3-5.4
				c1.9,1.1-13.9,6.4-12.9,8.8c0.3,0.8,11.3-6.5,18-4c1.4,1.3,2.7,2.8,3.7,4.4C70.5,26.5,72.3,32.7,72.6,39.1z"/>
			<rect style="fill:#FFFFFF;fill-opacity:0;" width="84" height="63"/>
			<line style="fill:none;stroke:#4D4D4D;stroke-width:0.5;stroke-miterlimit:10;" x1="6.1" y1="53.8" x2="77.9" y2="53.8"/>
			<circle style="fill:#E7E7E7;" cx="23.6" cy="46" r="7.4"/>
			<path style="fill:none;stroke:#4D4D4D;stroke-linecap:round;stroke-linejoin:round;" d="M29.6,41.7C32,45,31.3,49.6,28,52
				c-3.3,2.4-7.9,1.6-10.3-1.7S16,42.4,19.3,40c2.1-1.5,4.8-1.8,7.2-0.8"/>
			<path style="fill:none;" d="M26.5,39.2c1.2,0.5,2.3,1.4,3.1,2.5"/>
			<path style="fill:#BCCBD3;" d="M31.9,47.4l-7.8,1.1c-0.9,0.2-1.9-0.2-2.5-0.9c-0.8-1.1-0.7-2.5,0.2-3.4c2.4-1.1,6.1-2.6,9.1-3.8
				L31.9,47.4z"/>
			<path style="fill:#8D989E;" d="M30.9,40.3l-1.1,0.5l0.8,5.4l-7.8,1.1c-0.5,0.1-0.9,0-1.4-0.1c0.1,0.1,0.1,0.2,0.2,0.3
				c0.6,0.7,1.6,1.1,2.5,0.9l7.8-1.1L30.9,40.3z"/>
			<path style="fill:none;stroke:#4D4D4D;stroke-linecap:round;stroke-linejoin:round;" d="M29.6,47.7l-5.5,0.8
				c-0.9,0.2-1.9-0.2-2.5-0.9c-0.8-1.1-0.7-2.5,0.2-3.4c2.4-1.1,6.1-2.6,9.1-3.8"/>
			<circle style="fill:#E7E7E7;" cx="61.7" cy="46" r="7.4"/>
			<path style="fill:none;stroke:#4D4D4D;stroke-linecap:round;stroke-linejoin:round;" d="M64.5,39.2c3.8,1.6,5.6,5.9,4,9.7
				s-5.9,5.6-9.7,4s-5.6-5.9-4-9.7c0.9-2.2,2.8-3.8,5.1-4.3"/>
			<path style="fill:none;" d="M60,38.8c1.5-0.4,3.1-0.2,4.6,0.4"/>
			<path style="fill:#BCCBD3;" d="M64.4,45.2c-0.2-0.6-0.6-1.2-1.2-1.5c-0.3-0.2-0.7-0.4-1.1-0.5l-1.5-6.4c-1.7,0.6-3.2,1.5-4.6,2.7
				c1.6,2.3,3.3,4.9,3.3,4.9c-0.2,0.2-0.3,0.4-0.3,0.7c-0.1,0.3-0.1,0.7-0.1,1c0,1.6,1.3,2.9,2.8,2.9c1.6,0,2.9-1.3,2.9-2.8
				C64.6,45.7,64.5,45.4,64.4,45.2L64.4,45.2z"/>
			<path style="fill:#FFFFFF;" d="M64.4,45.2c-0.2-0.6-0.6-1.2-1.2-1.5c-0.3-0.2-0.7-0.4-1.1-0.5l-1.5-6.4c-1.7,0.6-3.2,1.5-4.6,2.7
				l0.1,0.2c1-0.7,2.2-1.3,3.3-1.7l1.6,6.4c0.4,0.1,0.8,0.3,1.1,0.5c0.6,0.4,1,0.9,1.2,1.5c0.2,0.7,0.1,1.5-0.2,2.2
				C64.3,47.8,64.8,46.4,64.4,45.2L64.4,45.2z"/>
			<path style="fill:none;" d="M58.4,42.9l0.9,1.4"/>
			<path style="fill:none;stroke:#4D4D4D;stroke-linecap:round;stroke-linejoin:round;" d="M59.3,44.3c-0.2,0.2-0.3,0.4-0.3,0.7
				c-0.1,0.3-0.1,0.7-0.1,1c0,1.6,1.3,2.9,2.8,2.9c1.6,0,2.9-1.3,2.9-2.8c0-0.3,0-0.6-0.1-0.9c-0.2-0.6-0.6-1.2-1.2-1.5
				c-0.3-0.2-0.7-0.4-1.1-0.5l-1.5-6.4c-1.7,0.6-3.3,1.5-4.6,2.7c0.9,1.2,1.8,2.6,2.4,3.5"/>
			<path style="fill:#CEEBDB;" d="M18.9,33.3c0,0-1.9,2.4-1.6,3.6l0.3,0.2c0.8-1.2,1.8-2.3,3-3.2l5,1.8c0,0,3.9,1.1,5.2,4.6
				c0.8,2.3,1.2,4.8,1.1,7.3l3.8,3.7h18.2c-0.4-2.1-0.7-4.2-0.7-6.4c0.1-1.8,1.8-6.9,9.5-8.6c0.8,0.1,0.8,0.1,1.3-0.2
				c0.5-0.3,0.8-2.2-0.9-4.3s-5.2-3.1-5.2-3.1c-0.3-1.3-1.3-2.3-2.5-2.5v1.5L52.5,27c0,0-0.9,0.3-0.1,1.1c1.1,0.8,2.2,1.4,3.4,1.9
				l-0.7,1l-1.3-1.3L53,30.4l0.4,1L35,43.2l16-11.9c0,0-7.7-3.1-10.8-2.1s-3,4.4-3,4.4s-3.7,0.7-5.8-0.4s-2.8-4.4-5.6-4.8
				c-2.4-0.3-4.9-0.4-7.3-0.3l-1.1,0.1L18.9,33.3z"/>
			<path style="fill:#AFDF8E;" d="M51,31.4l-2.4-0.9L36.3,41.4l10-6.5L51,31.4z M56.4,29l-1.3-1.4L52.5,27c0,0-0.9,0.3-0.1,1.1
				c0.7,0.5,1.4,1,2.2,1.4l1.2,0.5L56.4,29z M53,30.4v0.1l1-0.6l-0.2-0.2L53,30.4z M64.1,34.3h-0.3c-5.1,1.1-7.5,3.8-8.6,6
				c1.9-2.1,4.5-3.5,7.3-4.1c0.8,0.1,0.8,0.1,1.3-0.2C64.1,35.8,64.3,35.2,64.1,34.3L64.1,34.3z M36.9,49.3l-3.8-3.7
				c0.1-2.5-0.3-4.9-1.1-7.3c-1.4-3.5-5.2-4.6-5.2-4.6l-5-1.8l-1.7-0.5l-1-3.1h-0.7l-1.1,0.1l1.5,4.9c0,0-1.9,2.4-1.6,3.6l0.3,0.2
				c0.8-1.2,1.8-2.3,3-3.2l5,1.8c0,0,3.9,1.1,5.2,4.6c0.8,2.3,1.2,4.8,1.1,7.3l3.8,3.7h18.2c0,0-0.2-0.8-0.3-1.9L36.9,49.3z
				 M38.8,30.1c-0.6,0.5-1,1.2-1.3,1.9c0.6-0.1,1-0.1,1-0.1C38.5,31.2,38.6,30.6,38.8,30.1L38.8,30.1z"/>
			<path style="fill:none;stroke:#4D4D4D;stroke-linecap:round;stroke-linejoin:round;" d="M39.8,51.2h14c-0.4-2.1-0.7-4.2-0.7-6.4
				c0.1-1.8,1.8-6.9,9.5-8.6c0.8,0.1,0.8,0.1,1.3-0.2s0.8-2.2-0.9-4.3s-5.2-3.1-5.2-3.1c-0.3-1.3-1.3-2.3-2.5-2.5v1.5L52.5,27
				c0,0-0.9,0.3-0.1,1.1c1.1,0.8,2.2,1.4,3.4,1.9l-0.7,1l-1.3-1.3L53,30.4l0.4,1L35,43.2l16-11.9c0,0-7.7-3.1-10.8-2.1s-3,4.4-3,4.4
				s-3.7,0.7-5.8-0.4s-2.8-4.4-5.6-4.8c-2-0.3-4.1-0.4-6.1-0.3"/>
			<line style="fill:none;" x1="35.7" y1="51.2" x2="39.8" y2="51.2"/>
			<path style="fill:none;stroke:#4D4D4D;stroke-linecap:round;stroke-linejoin:round;" d="M17.4,28.4l1.5,4.9c0,0-1.9,2.4-1.6,3.6
				l0.3,0.2c0.8-1.2,1.8-2.3,3-3.2l5,1.8c0,0,3.9,1.1,5.2,4.6c0.8,2.3,1.2,4.8,1.1,7.3l3.8,3.7"/>
			<path style="fill:none;" d="M19.2,28.3h-0.7l-1.1,0.1"/>
			<line style="fill:none;stroke:#4D4D4D;stroke-linecap:round;stroke-linejoin:round;" x1="54" y1="33.8" x2="50.4" y2="37.6"/>
		</g>
	</g>
</g>
</svg>
